<svg width="46" height="45" viewBox="0 0 46 45" fill="none" xmlns="http://www.w3.org/2000/svg">
<g clip-path="url(#clip0_1077_727)">
<path d="M8.35623 39.3117C0.0686235 33.1881 -2.32701 21.5856 2.39952 12.4325C7.19079 3.08605 17.9388 -1.9417 27.3271 0.701089C39.4995 4.11739 43.5138 18.685 34.773 27.5802C34.255 28.0959 33.6723 28.4182 33.0896 28.8694C33.478 26.3555 34.3198 23.9706 34.1903 21.5856C33.6723 14.1729 26.4206 9.40297 18.9747 11.2723C7.64402 14.1729 1.88154 27.0646 7.32028 37.3779C7.64402 38.0225 8.0325 38.6671 8.35623 39.3117Z" fill="#989CA0"/>
<path d="M11.9817 17.3318C11.658 18.8788 11.3343 19.9102 11.2695 20.9415C10.3631 28.6765 16.773 34.9934 24.6074 34.0266C36.974 32.4796 44.0962 20.6837 39.6287 9.08119C39.4344 8.62999 39.3049 8.11432 38.9812 7.34082C44.8084 12.1107 46.9451 21.8439 44.1609 29.9012C40.0171 41.8905 26.2908 48.3363 15.8665 43.2441C6.54298 38.732 3.88836 26.9361 10.2336 18.9433C10.622 18.4276 11.14 18.1053 11.9817 17.3318Z" fill="#989CA0"/>
</g>
<defs>
<clipPath id="clip0_1077_727">
<rect width="46" height="45" fill="white"/>
</clipPath>
</defs>
</svg>
